<?xml version="1.0" encoding="UTF-8" standalone="no"?>
<!-- Created with Inkscape (http://www.inkscape.org/) -->

<svg
   xmlns:dc="http://purl.org/dc/elements/1.1/"
   xmlns:cc="http://creativecommons.org/ns#"
   xmlns:rdf="http://www.w3.org/1999/02/22-rdf-syntax-ns#"
   xmlns:svg="http://www.w3.org/2000/svg"
   xmlns="http://www.w3.org/2000/svg"
   xmlns:xlink="http://www.w3.org/1999/xlink"
   version="1.1"
   id="labmapSVG">
  <defs>
    <clipPath
       id="photo-clip-path"
       clipPathUnits="objectBoundingBox"
       >
      <rect
         width="0.8"
         height="0.8"
         rx="0.2"
         ry="0.2"
         x="0.1"
         y="0.1"
         id="rect3018"
         style="fill:#000000;fill-opacity:1;fill-rule:evenodd;stroke:none" />
    </clipPath>
  </defs>
  <metadata
     id="metadata7">
    <rdf:RDF>
      <cc:Work
         rdf:about="">
        <dc:format>image/svg+xml</dc:format>
        <dc:type
           rdf:resource="http://purl.org/dc/dcmitype/StillImage" />
        <dc:title></dc:title>
      </cc:Work>
    </rdf:RDF>
  </metadata>
  <g id="viewport">
    <g
       transform="translate(-176,-73.421083)"
       id="floor"
       style="display:inline">
      <path
         d="m 176,74.262512 l 0,88.324538 l 49.125,0 l 0,40.34375 l 86.96875,0 l 2.5e-4,187.43749 l 35.5935,10e-6 l 0,47.6875 l 276.03125,0 l 0,346.9375 l 32.34375,-6.25 l 0,4.28125 l 31.09375,-8.0625 l 1.375,5.1875 l 30.0625,-10.375 l 0,3.59375 l 30.1875,-12.90625 l 0,4.125 l 30.375,-15.21875 l 0,5.03125 l 26.0625,-17.5625 l 46,28.28125 l 9.6875,-10 l 0,-157.1875 l 110,0 l 0,-210.34375 l -20.3125,0 L 931,359.1183 l 0,-9.125 l -65.0625,0 l 0,-61.03125 l 41.875,0 l 0,-47.28125 l 37.75,0 l 43.9984,0.34375 l 0,114.62574 l 126.9391,0 l 0,-282.522172 l -537.84375,0.134394 z"
         id="path4131"
         style="fill:#f6f6f6;fill-opacity:1;stroke:none;display:inline" />
    </g>
    <g
       transform="translate(-176,-73.421083)"
       id="desks"
       style="display:inline">
      <path
         d="m 412.0625,240.46875 c -20.15545,35.37794 -31.6875,76.30541 -31.6875,119.9375 c 0,20.65048 2.58378,40.7033 7.4375,59.84375 l 18.46875,0 c -5.25107,-19.0578 -8.0625,-39.11683 -8.0625,-59.84375 c 0,-44.10616 12.71127,-85.22259 34.65625,-119.9375 l -20.8125,0 z"
         id="path3928"
         style="fill:#e6e6e6;fill-opacity:1;stroke:none" />
      <path
         d="m 469.5,240.46875 c -25.86313,33.06404 -41.28125,74.70613 -41.28125,119.9375 c 0,20.87996 3.29377,40.98678 9.375,59.84375 l 18.125,0 C 449.03068,401.55062 445.375,381.406 445.375,360.40625 c 0,-46.22711 17.66214,-88.33491 46.59375,-119.9375 l -22.46875,0 z"
         id="path3926"
         style="fill:#e6e6e6;fill-opacity:1;stroke:none" />
      <path
         d="m 359.09375,166.6875 c -18.44771,13.63902 -33.63233,31.44136 -44.1875,52 l 15.34375,9.25 c 13.57837,-27.10927 36.2493,-48.86429 64.03125,-61.25 l -35.1875,0 z m -52.125,70.4375 c -5.45374,15.48636 -8.4375,32.14718 -8.4375,49.5 c 0,21.29132 4.48725,41.5219 12.53125,59.84375 l 19.78125,0 c -9.21213,-17.94631 -14.4375,-38.28568 -14.4375,-59.84375 c 0,-15.15759 2.58343,-29.70386 7.3125,-43.25 l -16.75,-6.25 z"
         transform="translate(176,73.787053)"
         id="path3924"
         style="fill:#e6e6e6;fill-opacity:1;stroke:none" />
      <path
         d="M 677.03125,240.46875 C 714.87648,257.34414 743.22555,291.62013 752,333.125 l 18.25,0 c -6.99706,-37.8294 -28.26879,-70.64647 -58.03125,-92.65625 l -35.1875,0 z"
         id="path3922"
         style="fill:#e6e6e6;fill-opacity:1;stroke:none" />
      <path
         d="m 754.125,240.46875 c 23.13196,25.2611 39.04147,57.23223 44.5,92.65625 l 17.3125,0 c -4.854,-34.63867 -18.80551,-66.35972 -39.375,-92.65625 l -22.4375,0 z"
         id="path3920"
         style="fill:#e6e6e6;fill-opacity:1;stroke:none" />
      <path
         d="m 623.65625,258.8125 c -56.11066,0 -101.625,45.48309 -101.625,101.59375 c 0,22.37683 7.23746,43.05804 19.5,59.84375 l 21.0625,0 C 547.47149,404.82227 538.125,383.71405 538.125,360.40625 c 0,-47.23466 38.29659,-85.53125 85.53125,-85.53125 c 37.69901,0 69.68453,24.38621 81.0625,58.25 l 16.84375,0 c -11.91953,-42.85921 -51.24733,-74.3125 -97.90625,-74.3125 z"
         id="path3918"
         style="fill:#e6e6e6;fill-opacity:1;stroke:none" />
      <path
         d="m 446.3125,247.34375 c -21.69149,0 -39.28125,17.58976 -39.28125,39.28125 c 0,21.69149 17.58976,39.28125 39.28125,39.28125 c 21.69149,0 39.28125,-17.58976 39.28125,-39.28125 c 0,-21.69149 -17.58976,-39.28125 -39.28125,-39.28125 z m 0,16.625 c 12.51962,0 22.6875,10.13663 22.6875,22.65625 c 0,12.51962 -10.16788,22.65625 -22.6875,22.65625 c -12.51962,0 -22.65625,-10.13663 -22.65625,-22.65625 c 0,-12.51962 10.13663,-22.65625 22.65625,-22.65625 z"
         transform="translate(176,73.787053)"
         id="path3916"
         style="fill:#e6e6e6;fill-opacity:1;stroke:none" />
      <path
         d="m 704.3125,388.78125 c -9.56152,27.18824 -32.44898,48.10554 -60.84375,54.84375 l 0,16.4375 c 37.3061,-7.37801 67.23325,-35.1928 77.71875,-71.28125 l -16.875,0 z"
         id="path3912"
         style="fill:#e6e6e6;fill-opacity:1;stroke:none" />
      <path
         d="M 751.78125,388.78125 C 740.20929,441.3137 697.2042,482.05459 643.46875,490.1875 l 0,18 c 63.61244,-8.44255 114.53245,-57.00035 126.5625,-119.40625 l -18.25,0 z"
         id="path3910"
         style="fill:#e6e6e6;fill-opacity:1;stroke:none" />
      <path
         d="m 798.4375,388.78125 c -7.29014,45.38297 -31.78353,85.00192 -66.5625,112 l 10.84375,13.3125 c 38.65552,-30.14868 65.65427,-74.54588 73.0625,-125.3125 l -17.34375,0 z"
         id="path3908"
         style="fill:#e6e6e6;fill-opacity:1;stroke:none" />
      <path
         d="m 819.34375,470.03125 c -35.31539,63.11423 -100.18021,107.43182 -175.875,114.25 l 0,17.90625 c 72.28802,-6.03168 135.58135,-43.75521 175.9375,-99.21875 l -0.0625,-32.9375 z"
         id="path3906"
         style="fill:#e6e6e6;fill-opacity:1;stroke:none" />
      <path
         d="m 713.25,513.4375 c -20.89747,12.34394 -44.52539,20.54376 -69.78125,23.4375 l 0,17.28125 c 28.41671,-2.96443 55.02193,-12.03029 78.46875,-25.875 c -3.11273,-5.35866 -6.04798,-10.37342 -8.6875,-14.84375 z"
         id="path3904"
         style="fill:#e6e6e6;fill-opacity:1;stroke:none" />
      <path
         d="m 819.46875,546.40625 c -44.9176,47.43598 -106.83526,78.614 -176,83.78125 l 0,17.90625 c 67.85291,-4.75205 129.22462,-32.99172 176.0625,-76.625 l -0.0625,-25.0625 z"
         id="path3902"
         style="fill:#e6e6e6;fill-opacity:1;stroke:none" />
      <path
         d="m 819.59375,609.03125 c -49.03565,38.82027 -109.79536,63.46375 -176.125,67.6875 l 0,17.15625 c 65.65653,-3.96026 126.1675,-26.89767 176.1875,-63.375 l -0.0625,-21.46875 z"
         id="path3900"
         style="fill:#e6e6e6;fill-opacity:1;stroke:none" />
      <path
         d="m 801.34375,672.125 c -46.99192,26.93881 -100.63105,43.59968 -157.875,46.8125 l 0,18.5625 c 56.79244,-3.02834 110.2462,-18.60487 157.65625,-44 l 0.21875,-21.375 z"
         id="path3909"
         style="fill:#e6e6e6;fill-opacity:1;stroke:none" />
      <rect
         width="32.324879"
         height="64.902298"
         x="209.85919"
         y="74.787056"
         id="rect4002"
         style="fill:#e6e6e6;fill-opacity:1;fill-rule:evenodd;stroke:none" />
      <rect
         width="32.324879"
         height="84.253036"
         x="288.14603"
         y="74.787056"
         id="rect4002-9"
         style="fill:#e6e6e6;fill-opacity:1;fill-rule:evenodd;stroke:none" />
      <rect
         width="32.324879"
         height="102.24638"
         x="365.04388"
         y="74.787056"
         id="rect4002-9-2"
         style="fill:#e6e6e6;fill-opacity:1;fill-rule:evenodd;stroke:none" />
      <rect
         width="32.324879"
         height="102.24638"
         x="442.95187"
         y="74.787056"
         id="rect4002-9-2-8"
         style="fill:#e6e6e6;fill-opacity:1;fill-rule:evenodd;stroke:none" />
      <rect
         width="32.324879"
         height="102.24638"
         x="517.80011"
         y="74.787056"
         id="rect4002-9-2-4"
         style="fill:#e6e6e6;fill-opacity:1;fill-rule:evenodd;stroke:none" />
      <rect
         width="32.324879"
         height="102.24638"
         x="607.60675"
         y="74.787056"
         id="rect4002-9-2-2"
         style="fill:#e6e6e6;fill-opacity:1;fill-rule:evenodd;stroke:none" />
      <rect
         width="32.324879"
         height="102.24638"
         x="688.92407"
         y="74.787056"
         id="rect4002-9-2-45"
         style="fill:#e6e6e6;fill-opacity:1;fill-rule:evenodd;stroke:none" />
      <rect
         width="32.324879"
         height="102.24638"
         x="770.24139"
         y="74.787056"
         id="rect4002-9-2-0"
         style="fill:#e6e6e6;fill-opacity:1;fill-rule:evenodd;stroke:none" />
      <rect
         width="32.324879"
         height="84.253036"
         x="851.55872"
         y="74.787056"
         id="rect4002-9-3"
         style="fill:#e6e6e6;fill-opacity:1;fill-rule:evenodd;stroke:none" />
      <rect
         width="17.36009"
         height="122.95669"
         x="931.86572"
         y="74.123055"
         id="rect4002-9-3-9"
         style="fill:#e6e6e6;fill-opacity:1;fill-rule:evenodd;stroke:none" />
      <path
         d="m 900.99777,525.57144 c -13.41263,0 -24.3125,10.86862 -24.3125,24.28125 c 0,13.41263 10.89987,24.28125 24.3125,24.28125 c 13.41263,0 24.28125,-10.86862 24.28125,-24.28125 c 0,-13.41263 -10.86862,-24.28125 -24.28125,-24.28125 z m -0.15625,15.5 c 4.70748,0 8.53125,3.82377 8.53125,8.53125 c 0,4.70748 -3.82377,8.5 -8.53125,8.5 c -4.70748,0 -8.5,-3.79252 -8.5,-8.5 c 0,-4.70748 3.79252,-8.53125 8.5,-8.53125 z"
         id="path3053"
         style="fill:#e6e6e6;fill-opacity:1;fill-rule:evenodd;stroke:none" />
      <path
         d="m 900.99777,450.30829 c -13.41263,0 -24.3125,10.86862 -24.3125,24.28125 c 0,13.41263 10.89987,24.28125 24.3125,24.28125 c 13.41263,0 24.28125,-10.86862 24.28125,-24.28125 c 0,-13.41263 -10.86862,-24.28125 -24.28125,-24.28125 z m -0.15625,15.5 c 4.70748,0 8.53125,3.82377 8.53125,8.53125 c 0,4.70748 -3.82377,8.5 -8.53125,8.5 c -4.70748,0 -8.5,-3.79252 -8.5,-8.5 c 0,-4.70748 3.79252,-8.53125 8.5,-8.53125 z"
         id="path3053-8"
         style="fill:#e6e6e6;fill-opacity:1;fill-rule:evenodd;stroke:none" />
      <path
         d="m 900.99777,375.04517 c -13.41263,0 -24.3125,10.86862 -24.3125,24.28125 c 0,13.41263 10.89987,24.28125 24.3125,24.28125 c 13.41263,0 24.28125,-10.86862 24.28125,-24.28125 c 0,-13.41263 -10.86862,-24.28125 -24.28125,-24.28125 z m -0.15625,15.5 c 4.70748,0 8.53125,3.82377 8.53125,8.53125 c 0,4.70748 -3.82377,8.5 -8.53125,8.5 c -4.70748,0 -8.5,-3.79252 -8.5,-8.5 c 0,-4.70748 3.79252,-8.53125 8.5,-8.53125 z"
         id="path3053-1"
         style="fill:#e6e6e6;fill-opacity:1;fill-rule:evenodd;stroke:none" />
      <path
         d="m 925.75,282.86324 l 14.75,0 c 0,-94.33006 0,-188.192117 0,-282.52217548 l -17,0 c 0,0 1.5,11.99017248 -0.625,16.49017248 c -2.125,4.5 -3,9.875 -3,15.125 c 0,5.25 5.375,17.875 5.25,28.75 c -0.125,10.875 -4.375,19.375 -4.375,29.5 c 0,10.125003 4.75,20.125003 4.625,29.750003 c -0.125,9.625 -12.75,8.25 -8.875,8.125 c 3.875,-0.125 -24,-5 -31.75,-4.875 c -7.75,0.125 -27.375,4.125 -33.25,4.25 c -5.875,0.125 -9.75,9.375 -9.875,16.75 c -0.125,7.375 3.875,16.25 10.125,16.375 c 6.25,0.125 29.625,4.5 33.625,4.5 c 4,0 26.25,-4.75 31.875,-4.75 c 5.625,0 8.5,6.625 8.375,9.25 c -0.125,2.625 -4.625,22.125 -4.625,28.5 c 0,6.375 4.875,21.25 4.875,28 c 0,6.75 -4.625,21.25 -4.75,28.75 c -0.125,7.5 4.75,19.657 4.625,28.032 z"
         transform="translate(176,73.787053)"
         id="path4564"
         style="fill:#e6e6e6;fill-opacity:1;stroke:none" />
      <rect
         width="17.17259"
         height="114.60181"
         x="989.55914"
         y="242.04419"
         id="rect4002-9-3-9-9"
         style="fill:#e6e6e6;fill-opacity:1;fill-rule:evenodd;stroke:none;display:inline" />
      <rect
         width="17.17259"
         height="129.96936"
         x="950.87488"
         y="74.13887"
         id="rect4002-9-3-9-9-8"
         style="fill:#e6e6e6;fill-opacity:1;fill-rule:evenodd;stroke:none;display:inline" />
    </g>
    <g
       transform="translate(-176,-73.421083)"
       id="walls"
       style="display:inline">
      <path
         d="m 137.5,106.58124 a 21.875,21.875 0 0 1 21.875,21.875 l -21.875,0 z"
         transform="matrix(-0.85201854,-0.52351159,0.52351159,-0.85201854,888.26447,939.19826)"
         id="path4602-8-1-2"
         style="fill:#cccccc;fill-opacity:1;fill-rule:nonzero;stroke:#cccccc;stroke-opacity:1;display:inline" />
      <path
         d="m 312.0807,203.32896 l 637.29828,0"
         id="path3034"
         style="fill:#cccccc;fill-opacity:1;stroke:#cccccc;stroke-width:1.87670362;stroke-linecap:butt;stroke-linejoin:miter;stroke-miterlimit:4;stroke-opacity:1;stroke-dasharray:none" />
      <path
         d="m 576.42857,203.32896 l 0,-128.541907"
         id="path3038"
         style="fill:#cccccc;fill-opacity:1;stroke:#cccccc;stroke-width:2;stroke-linecap:butt;stroke-linejoin:miter;stroke-miterlimit:4;stroke-opacity:1;stroke-dasharray:none" />
      <path
         d="m 950.04438,241.7054 l 0,-167.451564"
         id="path3034-9"
         style="fill:#cccccc;fill-opacity:1;stroke:#cccccc;stroke-width:1.66550505;stroke-linecap:butt;stroke-linejoin:miter;stroke-miterlimit:4;stroke-opacity:1;stroke-dasharray:none;display:inline" />
      <path
         d="m 137.5,106.58124 a 21.875,21.875 0 0 1 21.875,21.875 l -21.875,0 z"
         transform="translate(174.58579,73.978344)"
         id="path4602"
         style="fill:#cccccc;fill-opacity:1;fill-rule:nonzero;stroke:#cccccc;stroke-opacity:1;filter:url(#filter5049)" />
      <path
         d="m 137.5,106.58124 a 21.875,21.875 0 0 1 21.875,21.875 l -21.875,0 z"
         transform="matrix(0,-1,1,0,733.41387,340.34866)"
         id="path4602-8"
         style="fill:#cccccc;fill-opacity:1;fill-rule:nonzero;stroke:#cccccc;stroke-opacity:1;display:inline" />
      <path
         d="m 137.5,106.58124 a 21.875,21.875 0 0 1 21.875,21.875 l -21.875,0 z"
         transform="translate(813.39037,105.79954)"
         id="path4602-8-1"
         style="fill:#cccccc;fill-opacity:1;fill-rule:nonzero;stroke:#cccccc;stroke-opacity:1;display:inline" />
      <path
         d="m 137.5,106.58124 a 21.875,21.875 0 0 1 21.875,21.875 l -21.875,0 z"
         transform="matrix(0,-1,1,0,183.13051,524.92906)"
         id="path4602-2"
         style="fill:#cccccc;fill-opacity:1;fill-rule:nonzero;stroke:#cccccc;stroke-opacity:1;display:inline" />
    </g>
    <g
       transform="translate(0,0.36596653)"
       id="desk-splines"
       style="display:none">
      <path
         d="m 619.17376,612.15397 a 368.33701,368.33701 0 0 1 -140.82109,41.7131"
         id="desks-001-009"
         style="fill:none;stroke:#000000;stroke-width:1;stroke-miterlimit:4;stroke-opacity:1;stroke-dasharray:none" />
      <path
         d="m 633.59022,554.48126 a 326.61771,326.61771 0 0 1 -153.19938,57.2789"
         id="desks-010-019"
         style="fill:none;stroke:#000000;stroke-width:1;stroke-miterlimit:4;stroke-opacity:1;stroke-dasharray:none" />
      <path
         d="M 633.94128,495.38398 A 280.50021,280.50021 0 0 1 480.43437,565.34111"
         id="desks-020-029"
         style="fill:none;stroke:#000000;stroke-width:1;stroke-miterlimit:4;stroke-opacity:1;stroke-dasharray:none" />
      <path
         d="M 634.97717,424.05002 A 233.27962,233.27962 0 0 1 478.71624,517.94106"
         id="desks-030-040"
         style="fill:none;stroke:#000000;stroke-width:1;stroke-miterlimit:4;stroke-opacity:1;stroke-dasharray:none" />
      <path
         d="m 533.78533,451.56171 a 186.45502,186.45502 0 0 1 -55.15776,18.99234"
         id="desks-049-052"
         style="fill:none;stroke:#000000;stroke-width:1;stroke-miterlimit:4;stroke-opacity:1;stroke-dasharray:none" />
      <path
         d="M 628.63053,325.69788 A 186.45502,186.45502 0 0 1 568.5755,427.65109"
         id="desks-041-048"
         style="fill:none;stroke:#000000;stroke-width:1;stroke-miterlimit:4;stroke-opacity:1;stroke-dasharray:none" />
      <path
         d="m 597.09528,177.3362 a 186.45502,186.45502 0 0 1 32.18403,74.01821"
         id="desks-067-069"
         style="fill:none;stroke:#000000;stroke-width:1;stroke-miterlimit:4;stroke-opacity:1;stroke-dasharray:none" />
      <path
         d="M 368.02512,337.73153 A 93.272476,93.272476 0 1 1 531.45865,248.99437"
         id="desks-074-088"
         style="fill:none;stroke:#000000;stroke-width:1;stroke-miterlimit:4;stroke-opacity:1;stroke-dasharray:none" />
      <path
         d="m 531.45865,324.86904 a 93.272476,93.272476 0 0 1 -53.30759,49.71012"
         id="desks-062-066"
         style="fill:none;stroke:#000000;stroke-width:1;stroke-miterlimit:4;stroke-opacity:1;stroke-dasharray:none" />
      <path
         d="M 582.10613,323.33424 A 140.64862,140.64862 0 0 1 477.88906,423.97551"
         id="desks-053-061"
         style="fill:none;stroke:#000000;stroke-width:1;stroke-miterlimit:4;stroke-opacity:1;stroke-dasharray:none" />
      <path
         d="m 532.84194,176.09908 a 140.64862,140.64862 0 0 1 49.26419,74.43008"
         id="desks-070-073"
         style="fill:none;stroke:#000000;stroke-width:1;stroke-miterlimit:4;stroke-opacity:1;stroke-dasharray:none" />
      <path
         d="m 474.56766,300.13644 a 31.245075,31.245075 0 1 1 0,-26.40948"
         id="desks-112-120"
         style="fill:none;stroke:#000000;stroke-width:1;stroke-miterlimit:4;stroke-opacity:1;stroke-dasharray:none" />
      <path
         d="M 316.26347,336.82886 A 139.23442,139.23442 0 0 1 312.40928,248.5535"
         id="desks-089-091"
         style="fill:none;stroke:#000000;stroke-width:1;stroke-miterlimit:4;stroke-opacity:1;stroke-dasharray:none" />
      <path
         d="m 326.90281,215.22068 a 139.23442,139.23442 0 0 1 35.55383,-39.48653"
         id="desks-092-094"
         style="fill:none;stroke:#000000;stroke-width:1;stroke-miterlimit:4;stroke-opacity:1;stroke-dasharray:none" />
      <path
         d="M 267.36406,334.86404 A 185.19635,185.19635 0 0 1 298.34562,175.47775"
         id="desks-095-103"
         style="fill:none;stroke:#000000;stroke-width:1;stroke-miterlimit:4;stroke-opacity:1;stroke-dasharray:none" />
      <path
         d="M 218.75976,335.28626 A 232.57251,232.57251 0 0 1 242.8375,174.17832"
         id="desks-104-111"
         style="fill:none;stroke:#000000;stroke-width:1;stroke-miterlimit:4;stroke-opacity:1;stroke-dasharray:none" />
      <path
         d="m 765.08954,112.76226 l 0,-103.2375919"
         id="desks-171-175"
         style="fill:none;stroke:#000000;stroke-width:1px;stroke-linecap:butt;stroke-linejoin:miter;stroke-opacity:1" />
      <path
         d="m 701.32861,9.5246681 l 0,68.5893579"
         id="desks-121-122"
         style="fill:none;stroke:#000000;stroke-width:1px;stroke-linecap:butt;stroke-linejoin:miter;stroke-opacity:1" />
      <path
         d="m 682.6215,9.5246681 l 0,68.5893579"
         id="desks-123-125"
         style="fill:none;stroke:#000000;stroke-width:1px;stroke-linecap:butt;stroke-linejoin:miter;stroke-opacity:1" />
      <path
         d="m 619.27001,9.5832721 l 0,86.1498199"
         id="desks-126-128"
         style="fill:none;stroke:#000000;stroke-width:1.117208px;stroke-linecap:butt;stroke-linejoin:miter;stroke-opacity:1" />
      <path
         d="m 600.6801,9.5832721 l 0,86.1498199"
         id="desks-129-131"
         style="fill:none;stroke:#000000;stroke-width:1.117208px;stroke-linecap:butt;stroke-linejoin:miter;stroke-opacity:1" />
      <path
         d="m 539.27001,9.5832721 l 0,86.1498199"
         id="desks-132"
         style="fill:none;stroke:#000000;stroke-width:1.117208px;stroke-linecap:butt;stroke-linejoin:miter;stroke-opacity:1" />
      <path
         d="m 520.6801,9.5832721 l 0,86.1498199"
         id="desks-137"
         style="fill:none;stroke:#000000;stroke-width:1.117208px;stroke-linecap:butt;stroke-linejoin:miter;stroke-opacity:1" />
      <path
         d="m 457.85579,9.5832721 l 0,86.1498199"
         id="desks-138"
         style="fill:none;stroke:#000000;stroke-width:1.117208px;stroke-linecap:butt;stroke-linejoin:miter;stroke-opacity:1" />
      <path
         d="m 439.26588,9.5832721 l 0,86.1498199"
         id="desks-143"
         style="fill:none;stroke:#000000;stroke-width:1.117208px;stroke-linecap:butt;stroke-linejoin:miter;stroke-opacity:1" />
      <path
         d="m 367.85579,9.5832721 l 0,86.1498199"
         id="desks-144"
         style="fill:none;stroke:#000000;stroke-width:1.117208px;stroke-linecap:butt;stroke-linejoin:miter;stroke-opacity:1" />
      <path
         d="m 349.26588,9.5832721 l 0,86.1498199"
         id="desks-149"
         style="fill:none;stroke:#000000;stroke-width:1.117208px;stroke-linecap:butt;stroke-linejoin:miter;stroke-opacity:1" />
      <path
         d="m 293.14868,9.5832721 l 0,86.1498199"
         id="desks-150"
         style="fill:none;stroke:#000000;stroke-width:1.117208px;stroke-linecap:butt;stroke-linejoin:miter;stroke-opacity:1" />
      <path
         d="m 274.55877,9.5832721 l 0,86.1498199"
         id="desks-155"
         style="fill:none;stroke:#000000;stroke-width:1.117208px;stroke-linecap:butt;stroke-linejoin:miter;stroke-opacity:1" />
      <path
         d="m 214.44157,9.5832721 l 0,86.1498199"
         id="desks-156"
         style="fill:none;stroke:#000000;stroke-width:1.117208px;stroke-linecap:butt;stroke-linejoin:miter;stroke-opacity:1" />
      <path
         d="m 195.85166,9.5832721 l 0,86.1498199"
         id="desks-161"
         style="fill:none;stroke:#000000;stroke-width:1.117208px;stroke-linecap:butt;stroke-linejoin:miter;stroke-opacity:1" />
      <path
         d="m 137.79306,9.5246681 l 0,68.5893579"
         id="desks-162"
         style="fill:none;stroke:#000000;stroke-width:1px;stroke-linecap:butt;stroke-linejoin:miter;stroke-opacity:1" />
      <path
         d="m 119.08595,9.5246681 l 0,68.5893579"
         id="desks-166"
         style="fill:none;stroke:#000000;stroke-width:1px;stroke-linecap:butt;stroke-linejoin:miter;stroke-opacity:1" />
      <path
         d="m 59.158922,9.4516996 l 0,49.6434114"
         id="desks-167"
         style="fill:none;stroke:#000000;stroke-width:0.85406291px;stroke-linecap:butt;stroke-linejoin:miter;stroke-opacity:1" />
      <path
         d="m 40.305874,9.4516996 l 0,49.6434114"
         id="desks-170"
         style="fill:none;stroke:#000000;stroke-width:0.85406291px;stroke-linecap:butt;stroke-linejoin:miter;stroke-opacity:1" />
      <path
         d="m 822.5,272.82503 l 0,-94.73758"
         id="desks-project-sw"
         style="fill:none;stroke:#000000;stroke-width:1px;stroke-linecap:butt;stroke-linejoin:miter;stroke-opacity:1;display:inline" />
      <path
         d="m 783.38388,112.37271 l 0,-102.8271319"
         id="desks-project-nw"
         style="fill:none;stroke:#000000;stroke-width:1.04182005px;stroke-linecap:butt;stroke-linejoin:miter;stroke-opacity:1;display:inline" />
      <path
         d="m 934.5,272.82503 l 0,-94.73758"
         id="desks-project-se"
         style="fill:none;stroke:#000000;stroke-width:1px;stroke-linecap:butt;stroke-linejoin:miter;stroke-opacity:1;display:inline" />
      <path
         d="m 934.5,104.26225 l 0,-94.7375819"
         id="desks-project-ne"
         style="fill:none;stroke:#000000;stroke-width:1px;stroke-linecap:butt;stroke-linejoin:miter;stroke-opacity:1;display:inline" />
      <path
         d="m 914.11372,153.29899 l -59.5766,0"
         id="desks-project-macs-s"
         style="fill:none;stroke:#000000;stroke-width:0.79300648px;stroke-linecap:butt;stroke-linejoin:miter;stroke-opacity:1;display:inline" />
      <path
         d="m 914.11372,135.09099 l -59.5766,0"
         id="desks-project-macs-n"
         style="fill:none;stroke:#000000;stroke-width:0.79300648px;stroke-linecap:butt;stroke-linejoin:miter;stroke-opacity:1;display:inline" />
    </g>
    <g id="computers" />
  </g>
  <g id="overlay">
    <rect id="shade" x="0" y="0" width="100%" height="100%" fill="black" opacity="0" />
    <g id="hoisted">
    </g>
  </g>
</svg>
